#N canvas 4 23 450 300 10;
#X obj 318 50 inlet~;
#X obj 111 47 inlet~;
#X obj 218 48 inlet~;
#X obj 159 253 outlet~;
#X obj 189 141 *~;
#X obj 164 94 -~;
#X obj 131 189 -~;
#X connect 0 0 4 1;
#X connect 1 0 5 0;
#X connect 1 0 6 0;
#X connect 2 0 5 1;
#X connect 4 0 6 1;
#X connect 5 0 4 0;
#X connect 6 0 3 0;
