#N canvas 553 206 250 451 12;
#X obj 34 37 inlet;
#X obj 75 171 list append;
#X obj 34 135 list split 1;
#X obj 34 100 t l b l;
#X obj 60 353 outlet;
#X msg 104 100 start;
#X msg 148 134 done;
#X obj 102 299 outlet;
#X msg 123 212 0, f 2;
#X text 57 379 list element;
#X text 99 322 element idx;
#X obj 102 260 f;
#X obj 34 202 t b a b;
#X obj 34 68 list;
#X obj 141 259 + 1;
#X connect 0 0 13 0;
#X connect 1 0 2 0;
#X connect 2 0 12 0;
#X connect 2 1 1 1;
#X connect 2 2 6 0;
#X connect 3 0 2 0;
#X connect 3 1 8 0;
#X connect 3 2 5 0;
#X connect 8 0 11 1;
#X connect 11 0 14 0;
#X connect 11 0 7 0;
#X connect 12 0 1 0;
#X connect 12 1 4 0;
#X connect 12 2 11 0;
#X connect 13 0 3 0;
#X connect 14 0 11 1;
