#N canvas 0 22 365 431 10;
#X obj 79 285 +;
#X obj 112 285 f;
#X obj 52 315 f;
#X obj 52 72 t b l b;
#X msg 263 208 0, f 2;
#X obj 52 48 inlet;
#X obj 52 337 outlet;
#X obj 123 205 list append;
#X obj 85 168 list split 1;
#X obj 85 235 t b a;
#X connect 0 0 1 0;
#X connect 0 0 2 1;
#X connect 1 0 0 1;
#X connect 2 0 6 0;
#X connect 3 0 2 0;
#X connect 3 1 8 0;
#X connect 3 2 4 0;
#X connect 4 0 0 1;
#X connect 5 0 3 0;
#X connect 7 0 8 0;
#X connect 8 0 9 0;
#X connect 8 1 7 1;
#X connect 9 0 7 0;
#X connect 9 1 0 0;
