#N canvas 432 26 673 715 10;
#N canvas 0 22 450 278 (subpatch) 0;
#X array array1 64 float 2;
#X coords 0 1 64 0 100 70 1 0 0;
#X restore 201 350 graph;
#N canvas 0 22 450 278 (subpatch) 0;
#X array array2 64 float 2;
#X coords 0 1 64 0 100 70 1 0 0;
#X restore 201 440 graph;
#N canvas 0 22 450 278 (subpatch) 0;
#X array array4 441 float 0;
#X coords 0 1 440 0 100 70 1 0 0;
#X restore 321 350 graph;
#N canvas 0 22 450 278 (subpatch) 0;
#X array array5 441 float 0;
#X coords 0 1 440 0 100 70 1 0 0;
#X restore 321 440 graph;
#N canvas 655 83 706 646 tables 0;
#X obj 94 454 tabwrite~ array1;
#X obj 61 498 tabwrite~ array2;
#X obj 154 195 t f b;
#X obj 151 250 tabwrite array4;
#X obj 175 221 i;
#X obj 204 222 + 1;
#X obj 147 307 t f b;
#X obj 168 333 i;
#X obj 197 334 + 1;
#X obj 144 362 tabwrite array5;
#X obj 143 285 snapshot~;
#X obj 150 172 snapshot~;
#X obj 446 124 r array4;
#X msg 446 146 0;
#X msg 488 415 \; array4 const 0;
#X msg 488 478 \; array5 const 0;
#X obj 490 390 sel;
#X obj 490 454 sel;
#X obj 68 121 catch~ \$0phase-ramp;
#X obj 35 97 catch~ \$0phase-wrap;
#X obj 234 221 mod 441;
#X obj 227 333 mod 441;
#X obj 568 213 bang~;
#X obj 568 235 f;
#X obj 568 257 + 1;
#X obj 568 301 sel;
#X obj 568 279 mod 10;
#X connect 2 0 3 0;
#X connect 2 1 4 0;
#X connect 4 0 5 0;
#X connect 4 0 3 1;
#X connect 5 0 20 0;
#X connect 6 0 9 0;
#X connect 6 1 7 0;
#X connect 7 0 8 0;
#X connect 7 0 9 1;
#X connect 8 0 21 0;
#X connect 10 0 6 0;
#X connect 11 0 2 0;
#X connect 12 0 13 0;
#X connect 13 0 4 1;
#X connect 13 0 7 1;
#X connect 16 0 14 0;
#X connect 17 0 15 0;
#X connect 18 0 11 0;
#X connect 18 0 0 0;
#X connect 19 0 10 0;
#X connect 19 0 1 0;
#X connect 20 0 4 1;
#X connect 20 0 16 0;
#X connect 21 0 7 1;
#X connect 21 0 17 0;
#X connect 22 0 23 0;
#X connect 23 0 24 0;
#X connect 24 0 26 0;
#X connect 25 0 11 0;
#X connect 25 0 10 0;
#X connect 25 0 0 0;
#X connect 25 0 1 0;
#X connect 26 0 25 0;
#X connect 26 0 23 1;
#X restore 233 521 pd tables;
#X obj 258 269 throw~ \$0phase-ramp;
#X obj 206 299 throw~ \$0phase-wrap;
#X obj 205 141 sig~ 0.5;
#X floatatom 230 167 5 0 100 0 - - -, f 5;
#X msg 257 213 4 2 2;
#N canvas 4 23 450 300 interpolation 0;
#X obj 60 78 inlet;
#X obj 66 217 outlet~;
#X obj 64 168 line~;
#X obj 62 119 / 100;
#X obj 63 144 pack 0 20;
#X connect 0 0 3 0;
#X connect 2 0 1 0;
#X connect 3 0 4 0;
#X connect 4 0 2 0;
#X restore 230 188 pd interpolation;
#X floatatom 205 116 5 0 0 0 - - -, f 5;
#X obj 204 237 phrase~;
#X connect 7 0 12 0;
#X connect 8 0 10 0;
#X connect 9 0 12 2;
#X connect 10 0 12 1;
#X connect 11 0 7 0;
#X connect 12 0 6 0;
#X connect 12 1 5 0;
#X coords 0 715 1 714 40 20 0;
