#N canvas 432 26 927 852 10;
#X obj 571 725 outlet~;
#X obj 736 53 inlet;
#X obj 266 47 inlet~;
#X text 735 34 phrase(list);
#X text 542 31 interp bw phrase1 phrase2;
#N canvas 256 52 771 762 phrases 0;
#X obj 241 265 list-sum;
#X obj 154 251 list-iter;
#X obj 170 316 /;
#X obj 272 122 t l l l;
#X obj 466 211 list length;
#X msg 550 375 resize \$1;
#X msg 402 318 const \$1;
#X obj 182 450 list prepend 0;
#X obj 253 554 array define \$0phrase1;
#X obj 483 490 array define \$0phrase2;
#X obj 402 295 expr 1/$f1;
#X obj 272 90 inlet;
#X obj 163 378 list store;
#X msg 173 339 append \$1;
#X obj 124 214 t b l b;
#X obj 530 279 s \$0phrase_len;
#X obj 466 234 t f f f;
#X connect 0 0 2 1;
#X connect 1 0 2 0;
#X connect 2 0 13 0;
#X connect 3 0 14 0;
#X connect 3 1 0 0;
#X connect 3 2 4 0;
#X connect 4 0 16 0;
#X connect 5 0 8 0;
#X connect 5 0 9 0;
#X connect 6 0 9 0;
#X connect 7 0 8 0;
#X connect 10 0 6 0;
#X connect 11 0 3 0;
#X connect 12 0 7 0;
#X connect 13 0 12 0;
#X connect 14 0 12 0;
#X connect 14 1 1 0;
#X connect 14 2 12 1;
#X connect 16 0 10 0;
#X connect 16 1 5 0;
#X connect 16 2 15 0;
#X restore 768 108 pd phrases;
#X obj 736 75 t b l;
#N canvas 4 23 469 463 TODO 0;
#X text 99 122 TODO: calc gate for each impulse;
#X floatatom 100 85 5 0 0 0 - - -, f 5;
#X obj 100 102 / 100;
#X text 139 84 gate mod;
#X obj 176 157 loadbang;
#X msg 322 206 TODO:;
#X msg 300 229 phase sync;
#X obj 176 179 t b b b b b b b b b;
#X msg 271 280 gate modulation;
#X obj 125 334 print -n;
#X msg 284 254 phase (or phrase) offset;
#X connect 1 0 2 0;
#X connect 4 0 7 0;
#X connect 5 0 9 0;
#X connect 6 0 9 0;
#X connect 7 5 8 0;
#X connect 7 6 10 0;
#X connect 7 7 6 0;
#X connect 7 8 5 0;
#X connect 8 0 9 0;
#X connect 10 0 9 0;
#X restore 662 569 pd TODO;
#X obj 492 419 cyclone/number~;
#X obj 258 203 *~;
#X msg 404 199 0;
#X obj 450 305 else/trighold~;
#X obj 641 176 array get \$0phrase1;
#X obj 500 176 array get \$0phrase2;
#X obj 641 198 list prepend set;
#X obj 500 199 list prepend set;
#X obj 625 260 print;
#X obj 500 221 list trim;
#X obj 641 220 list trim;
#X obj 565 305 else/trighold~;
#X obj 258 252 else/pimp~ 1;
#X obj 487 347 interpol~;
#X msg 404 221 goto 1;
#X obj 500 376 expr~ 1/$v1;
#X obj 306 430 else/pulsecount~;
#X obj 243 454 +~;
#X obj 445 283 else/impseq2~;
#X obj 561 283 else/impseq2~;
#N canvas 4 23 450 300 tabreceive~ 0;
#X obj 203 72 block~ 1;
#X obj 203 96 array define \$0mult 1;
#X obj 103 134 tabreceive~ \$0mult;
#X obj 92 156 outlet~;
#X connect 2 0 3 0;
#X restore 279 175 pd tabreceive~;
#N canvas 214 377 450 300 tabsend~ 0;
#X obj 112 85 inlet~;
#X obj 103 108 tabsend~ \$0mult;
#X connect 0 0 1 0;
#X restore 501 397 pd tabsend~;
#X obj 261 514 r \$0phrase_len;
#X obj 243 536 /~;
#X msg 806 58 4 2 2;
#X obj 543 74 clip~ 0 1;
#X obj 543 50 inlet~;
#X text 264 30 base freq;
#X obj 474 567 outlet~;
#X connect 1 0 6 0;
#X connect 2 0 9 0;
#X connect 6 0 12 0;
#X connect 6 0 13 0;
#X connect 6 1 5 0;
#X connect 9 0 20 0;
#X connect 10 0 20 1;
#X connect 10 0 22 0;
#X connect 11 0 21 0;
#X connect 12 0 14 0;
#X connect 13 0 15 0;
#X connect 14 0 18 0;
#X connect 15 0 17 0;
#X connect 17 0 16 0;
#X connect 17 0 26 0;
#X connect 18 0 16 0;
#X connect 18 0 27 0;
#X connect 19 0 21 1;
#X connect 20 0 25 0;
#X connect 20 0 36 0;
#X connect 20 1 24 0;
#X connect 20 1 26 0;
#X connect 20 1 27 0;
#X connect 21 0 8 0;
#X connect 21 0 23 0;
#X connect 22 0 26 0;
#X connect 22 0 27 0;
#X connect 23 0 29 0;
#X connect 24 0 25 1;
#X connect 25 0 31 0;
#X connect 26 0 11 0;
#X connect 26 1 24 1;
#X connect 27 0 19 0;
#X connect 28 0 9 1;
#X connect 30 0 31 1;
#X connect 31 0 0 0;
#X connect 32 0 6 0;
#X connect 33 0 21 2;
#X connect 34 0 33 0;
#X coords 0 852 1 851 40 20 0;
